<svg id="visual" viewBox="0 0 900 900" width="900" height="900" xmlns="http://www.w3.org/2000/svg" xmlns:xlink="http://www.w3.org/1999/xlink" version="1.1"><path d="M845 900L846.5 888.5C848 877 851 854 849.5 831C848 808 842 785 840.5 761.8C839 738.7 842 715.3 845 692.2C848 669 851 646 846.5 623C842 600 830 577 828.5 554C827 531 836 508 842 484.8C848 461.7 851 438.3 846.5 415.2C842 392 830 369 827 346C824 323 830 300 836 277C842 254 848 231 851 207.8C854 184.7 854 161.3 851 138.2C848 115 842 92 842 69C842 46 848 23 851 11.5L854 0L900 0L900 11.5C900 23 900 46 900 69C900 92 900 115 900 138.2C900 161.3 900 184.7 900 207.8C900 231 900 254 900 277C900 300 900 323 900 346C900 369 900 392 900 415.2C900 438.3 900 461.7 900 484.8C900 508 900 531 900 554C900 577 900 600 900 623C900 646 900 669 900 692.2C900 715.3 900 738.7 900 761.8C900 785 900 808 900 831C900 854 900 877 900 888.5L900 900Z" fill="#436e65"></path><path d="M773 900L776 888.5C779 877 785 854 786.5 831C788 808 785 785 786.5 761.8C788 738.7 794 715.3 794 692.2C794 669 788 646 780.5 623C773 600 764 577 765.5 554C767 531 779 508 783.5 484.8C788 461.7 785 438.3 779 415.2C773 392 764 369 762.5 346C761 323 767 300 771.5 277C776 254 779 231 780.5 207.8C782 184.7 782 161.3 783.5 138.2C785 115 788 92 789.5 69C791 46 791 23 791 11.5L791 0L855 0L852 11.5C849 23 843 46 843 69C843 92 849 115 852 138.2C855 161.3 855 184.7 852 207.8C849 231 843 254 837 277C831 300 825 323 828 346C831 369 843 392 847.5 415.2C852 438.3 849 461.7 843 484.8C837 508 828 531 829.5 554C831 577 843 600 847.5 623C852 646 849 669 846 692.2C843 715.3 840 738.7 841.5 761.8C843 785 849 808 850.5 831C852 854 849 877 847.5 888.5L846 900Z" fill="#3a625a"></path><path d="M701 900L701 888.5C701 877 701 854 702.5 831C704 808 707 785 711.5 761.8C716 738.7 722 715.3 720.5 692.2C719 669 710 646 701 623C692 600 683 577 684.5 554C686 531 698 508 705.5 484.8C713 461.7 716 438.3 710 415.2C704 392 689 369 683 346C677 323 680 300 686 277C692 254 701 231 701 207.8C701 184.7 692 161.3 695 138.2C698 115 713 92 719 69C725 46 722 23 720.5 11.5L719 0L792 0L792 11.5C792 23 792 46 790.5 69C789 92 786 115 784.5 138.2C783 161.3 783 184.7 781.5 207.8C780 231 777 254 772.5 277C768 300 762 323 763.5 346C765 369 774 392 780 415.2C786 438.3 789 461.7 784.5 484.8C780 508 768 531 766.5 554C765 577 774 600 781.5 623C789 646 795 669 795 692.2C795 715.3 789 738.7 787.5 761.8C786 785 789 808 787.5 831C786 854 780 877 777 888.5L774 900Z" fill="#30574f"></path><path d="M566 900L569 888.5C572 877 578 854 587 831C596 808 608 785 608 761.8C608 738.7 596 715.3 588.5 692.2C581 669 578 646 576.5 623C575 600 575 577 579.5 554C584 531 593 508 591.5 484.8C590 461.7 578 438.3 570.5 415.2C563 392 560 369 558.5 346C557 323 557 300 567.5 277C578 254 599 231 603.5 207.8C608 184.7 596 161.3 591.5 138.2C587 115 590 92 596 69C602 46 611 23 615.5 11.5L620 0L720 0L721.5 11.5C723 23 726 46 720 69C714 92 699 115 696 138.2C693 161.3 702 184.7 702 207.8C702 231 693 254 687 277C681 300 678 323 684 346C690 369 705 392 711 415.2C717 438.3 714 461.7 706.5 484.8C699 508 687 531 685.5 554C684 577 693 600 702 623C711 646 720 669 721.5 692.2C723 715.3 717 738.7 712.5 761.8C708 785 705 808 703.5 831C702 854 702 877 702 888.5L702 900Z" fill="#274c44"></path><path d="M368 900L365 888.5C362 877 356 854 356 831C356 808 362 785 356 761.8C350 738.7 332 715.3 338 692.2C344 669 374 646 384.5 623C395 600 386 577 377 554C368 531 359 508 360.5 484.8C362 461.7 374 438.3 369.5 415.2C365 392 344 369 341 346C338 323 353 300 354.5 277C356 254 344 231 348.5 207.8C353 184.7 374 161.3 377 138.2C380 115 365 92 372.5 69C380 46 410 23 425 11.5L440 0L621 0L616.5 11.5C612 23 603 46 597 69C591 92 588 115 592.5 138.2C597 161.3 609 184.7 604.5 207.8C600 231 579 254 568.5 277C558 300 558 323 559.5 346C561 369 564 392 571.5 415.2C579 438.3 591 461.7 592.5 484.8C594 508 585 531 580.5 554C576 577 576 600 577.5 623C579 646 582 669 589.5 692.2C597 715.3 609 738.7 609 761.8C609 785 597 808 588 831C579 854 573 877 570 888.5L567 900Z" fill="#22433d"></path><path d="M314 900L305 888.5C296 877 278 854 273.5 831C269 808 278 785 276.5 761.8C275 738.7 263 715.3 272 692.2C281 669 311 646 324.5 623C338 600 335 577 324.5 554C314 531 296 508 296 484.8C296 461.7 314 438.3 311 415.2C308 392 284 369 281 346C278 323 296 300 296 277C296 254 278 231 282.5 207.8C287 184.7 314 161.3 317 138.2C320 115 299 92 300.5 69C302 46 326 23 338 11.5L350 0L441 0L426 11.5C411 23 381 46 373.5 69C366 92 381 115 378 138.2C375 161.3 354 184.7 349.5 207.8C345 231 357 254 355.5 277C354 300 339 323 342 346C345 369 366 392 370.5 415.2C375 438.3 363 461.7 361.5 484.8C360 508 369 531 378 554C387 577 396 600 385.5 623C375 646 345 669 339 692.2C333 715.3 351 738.7 357 761.8C363 785 357 808 357 831C357 854 363 877 366 888.5L369 900Z" fill="#203e38"></path><path d="M89 900L87.5 888.5C86 877 83 854 89 831C95 808 110 785 110 761.8C110 738.7 95 715.3 89 692.2C83 669 86 646 87.5 623C89 600 89 577 87.5 554C86 531 83 508 83 484.8C83 461.7 86 438.3 87.5 415.2C89 392 89 369 87.5 346C86 323 83 300 81.5 277C80 254 80 231 86 207.8C92 184.7 104 161.3 108.5 138.2C113 115 110 92 107 69C104 46 101 23 99.5 11.5L98 0L351 0L339 11.5C327 23 303 46 301.5 69C300 92 321 115 318 138.2C315 161.3 288 184.7 283.5 207.8C279 231 297 254 297 277C297 300 279 323 282 346C285 369 309 392 312 415.2C315 438.3 297 461.7 297 484.8C297 508 315 531 325.5 554C336 577 339 600 325.5 623C312 646 282 669 273 692.2C264 715.3 276 738.7 277.5 761.8C279 785 270 808 274.5 831C279 854 297 877 306 888.5L315 900Z" fill="#1e3933"></path><path d="M0 900L0 888.5C0 877 0 854 0 831C0 808 0 785 0 761.8C0 738.7 0 715.3 0 692.2C0 669 0 646 0 623C0 600 0 577 0 554C0 531 0 508 0 484.8C0 461.7 0 438.3 0 415.2C0 392 0 369 0 346C0 323 0 300 0 277C0 254 0 231 0 207.8C0 184.7 0 161.3 0 138.2C0 115 0 92 0 69C0 46 0 23 0 11.5L0 0L99 0L100.5 11.5C102 23 105 46 108 69C111 92 114 115 109.5 138.2C105 161.3 93 184.7 87 207.8C81 231 81 254 82.5 277C84 300 87 323 88.5 346C90 369 90 392 88.5 415.2C87 438.3 84 461.7 84 484.8C84 508 87 531 88.5 554C90 577 90 600 88.5 623C87 646 84 669 90 692.2C96 715.3 111 738.7 111 761.8C111 785 96 808 90 831C84 854 87 877 88.5 888.5L90 900Z" fill="#1c342f"></path></svg>