<svg id="visual" viewBox="0 0 900 900" width="900" height="900" xmlns="http://www.w3.org/2000/svg" xmlns:xlink="http://www.w3.org/1999/xlink" version="1.1"><path d="M0 55L11.5 53.5C23 52 46 49 69 50.5C92 52 115 58 138.2 59.5C161.3 61 184.7 58 207.8 55C231 52 254 49 277 53.5C300 58 323 70 346 71.5C369 73 392 64 415.2 58C438.3 52 461.7 49 484.8 53.5C508 58 531 70 554 73C577 76 600 70 623 64C646 58 669 52 692.2 49C715.3 46 738.7 46 761.8 49C785 52 808 58 831 58C854 58 877 52 888.5 49L900 46L900 0L888.5 0C877 0 854 0 831 0C808 0 785 0 761.8 0C738.7 0 715.3 0 692.2 0C669 0 646 0 623 0C600 0 577 0 554 0C531 0 508 0 484.8 0C461.7 0 438.3 0 415.2 0C392 0 369 0 346 0C323 0 300 0 277 0C254 0 231 0 207.8 0C184.7 0 161.3 0 138.2 0C115 0 92 0 69 0C46 0 23 0 11.5 0L0 0Z" fill="#1c342f"></path><path d="M0 127L11.5 124C23 121 46 115 69 113.5C92 112 115 115 138.2 113.5C161.3 112 184.7 106 207.8 106C231 106 254 112 277 119.5C300 127 323 136 346 134.5C369 133 392 121 415.2 116.5C438.3 112 461.7 115 484.8 121C508 127 531 136 554 137.5C577 139 600 133 623 128.5C646 124 669 121 692.2 119.5C715.3 118 738.7 118 761.8 116.5C785 115 808 112 831 110.5C854 109 877 109 888.5 109L900 109L900 44L888.5 47C877 50 854 56 831 56C808 56 785 50 761.8 47C738.7 44 715.3 44 692.2 47C669 50 646 56 623 62C600 68 577 74 554 71C531 68 508 56 484.8 51.5C461.7 47 438.3 50 415.2 56C392 62 369 71 346 69.5C323 68 300 56 277 51.5C254 47 231 50 207.8 53C184.7 56 161.3 59 138.2 57.5C115 56 92 50 69 48.5C46 47 23 50 11.5 51.5L0 53Z" fill="#1e3933"></path><path d="M0 199L11.5 199C23 199 46 199 69 197.5C92 196 115 193 138.2 188.5C161.3 184 184.7 178 207.8 179.5C231 181 254 190 277 199C300 208 323 217 346 215.5C369 214 392 202 415.2 194.5C438.3 187 461.7 184 484.8 190C508 196 531 211 554 217C577 223 600 220 623 214C646 208 669 199 692.2 199C715.3 199 738.7 208 761.8 205C785 202 808 187 831 181C854 175 877 178 888.5 179.5L900 181L900 107L888.5 107C877 107 854 107 831 108.5C808 110 785 113 761.8 114.5C738.7 116 715.3 116 692.2 117.5C669 119 646 122 623 126.5C600 131 577 137 554 135.5C531 134 508 125 484.8 119C461.7 113 438.3 110 415.2 114.5C392 119 369 131 346 132.5C323 134 300 125 277 117.5C254 110 231 104 207.8 104C184.7 104 161.3 110 138.2 111.5C115 113 92 110 69 111.5C46 113 23 119 11.5 122L0 125Z" fill="#203e38"></path><path d="M0 334L11.5 331C23 328 46 322 69 313C92 304 115 292 138.2 292C161.3 292 184.7 304 207.8 311.5C231 319 254 322 277 323.5C300 325 323 325 346 320.5C369 316 392 307 415.2 308.5C438.3 310 461.7 322 484.8 329.5C508 337 531 340 554 341.5C577 343 600 343 623 332.5C646 322 669 301 692.2 296.5C715.3 292 738.7 304 761.8 308.5C785 313 808 310 831 304C854 298 877 289 888.5 284.5L900 280L900 179L888.5 177.5C877 176 854 173 831 179C808 185 785 200 761.8 203C738.7 206 715.3 197 692.2 197C669 197 646 206 623 212C600 218 577 221 554 215C531 209 508 194 484.8 188C461.7 182 438.3 185 415.2 192.5C392 200 369 212 346 213.5C323 215 300 206 277 197C254 188 231 179 207.8 177.5C184.7 176 161.3 182 138.2 186.5C115 191 92 194 69 195.5C46 197 23 197 11.5 197L0 197Z" fill="#22433d"></path><path d="M0 532L11.5 535C23 538 46 544 69 544C92 544 115 538 138.2 544C161.3 550 184.7 568 207.8 562C231 556 254 526 277 515.5C300 505 323 514 346 523C369 532 392 541 415.2 539.5C438.3 538 461.7 526 484.8 530.5C508 535 531 556 554 559C577 562 600 547 623 545.5C646 544 669 556 692.2 551.5C715.3 547 738.7 526 761.8 523C785 520 808 535 831 527.5C854 520 877 490 888.5 475L900 460L900 278L888.5 282.5C877 287 854 296 831 302C808 308 785 311 761.8 306.5C738.7 302 715.3 290 692.2 294.5C669 299 646 320 623 330.5C600 341 577 341 554 339.5C531 338 508 335 484.8 327.5C461.7 320 438.3 308 415.2 306.5C392 305 369 314 346 318.5C323 323 300 323 277 321.5C254 320 231 317 207.8 309.5C184.7 302 161.3 290 138.2 290C115 290 92 302 69 311C46 320 23 326 11.5 329L0 332Z" fill="#274c44"></path><path d="M0 586L11.5 595C23 604 46 622 69 626.5C92 631 115 622 138.2 623.5C161.3 625 184.7 637 207.8 628C231 619 254 589 277 575.5C300 562 323 565 346 575.5C369 586 392 604 415.2 604C438.3 604 461.7 586 484.8 589C508 592 531 616 554 619C577 622 600 604 623 604C646 604 669 622 692.2 617.5C715.3 613 738.7 586 761.8 583C785 580 808 601 831 599.5C854 598 877 574 888.5 562L900 550L900 458L888.5 473C877 488 854 518 831 525.5C808 533 785 518 761.8 521C738.7 524 715.3 545 692.2 549.5C669 554 646 542 623 543.5C600 545 577 560 554 557C531 554 508 533 484.8 528.5C461.7 524 438.3 536 415.2 537.5C392 539 369 530 346 521C323 512 300 503 277 513.5C254 524 231 554 207.8 560C184.7 566 161.3 548 138.2 542C115 536 92 542 69 542C46 542 23 536 11.5 533L0 530Z" fill="#30574f"></path><path d="M0 811L11.5 812.5C23 814 46 817 69 811C92 805 115 790 138.2 790C161.3 790 184.7 805 207.8 811C231 817 254 814 277 812.5C300 811 323 811 346 812.5C369 814 392 817 415.2 817C438.3 817 461.7 814 484.8 812.5C508 811 531 811 554 812.5C577 814 600 817 623 818.5C646 820 669 820 692.2 814C715.3 808 738.7 796 761.8 791.5C785 787 808 790 831 793C854 796 877 799 888.5 800.5L900 802L900 548L888.5 560C877 572 854 596 831 597.5C808 599 785 578 761.8 581C738.7 584 715.3 611 692.2 615.5C669 620 646 602 623 602C600 602 577 620 554 617C531 614 508 590 484.8 587C461.7 584 438.3 602 415.2 602C392 602 369 584 346 573.5C323 563 300 560 277 573.5C254 587 231 617 207.8 626C184.7 635 161.3 623 138.2 621.5C115 620 92 629 69 624.5C46 620 23 602 11.5 593L0 584Z" fill="#3a625a"></path><path d="M0 901L11.5 901C23 901 46 901 69 901C92 901 115 901 138.2 901C161.3 901 184.7 901 207.8 901C231 901 254 901 277 901C300 901 323 901 346 901C369 901 392 901 415.2 901C438.3 901 461.7 901 484.8 901C508 901 531 901 554 901C577 901 600 901 623 901C646 901 669 901 692.2 901C715.3 901 738.7 901 761.8 901C785 901 808 901 831 901C854 901 877 901 888.5 901L900 901L900 800L888.5 798.5C877 797 854 794 831 791C808 788 785 785 761.8 789.5C738.7 794 715.3 806 692.2 812C669 818 646 818 623 816.5C600 815 577 812 554 810.5C531 809 508 809 484.8 810.5C461.7 812 438.3 815 415.2 815C392 815 369 812 346 810.5C323 809 300 809 277 810.5C254 812 231 815 207.8 809C184.7 803 161.3 788 138.2 788C115 788 92 803 69 809C46 815 23 812 11.5 810.5L0 809Z" fill="#436e65"></path></svg>