<svg id="visual" viewBox="0 0 900 900" width="900" height="900" xmlns="http://www.w3.org/2000/svg" xmlns:xlink="http://www.w3.org/1999/xlink" version="1.1"><g stroke-width="1" stroke-linejoin="bevel"><path d="M414 402L332 423L392 472Z" fill="#051b26" stroke="#051b26"></path><path d="M332 423L263 516L392 472Z" fill="#0c3035" stroke="#0c3035"></path><path d="M327 281L230 390L332 423Z" fill="#031621" stroke="#031621"></path><path d="M332 423L230 390L263 516Z" fill="#00101c" stroke="#00101c"></path><path d="M414 402L327 281L332 423Z" fill="#00101c" stroke="#00101c"></path><path d="M538 489L528 386L414 402Z" fill="#1c413d" stroke="#1c413d"></path><path d="M414 402L409 270L327 281Z" fill="#00101c" stroke="#00101c"></path><path d="M505 328L409 270L414 402Z" fill="#0c3035" stroke="#0c3035"></path><path d="M528 386L505 328L414 402Z" fill="#07262e" stroke="#07262e"></path><path d="M466 629L538 489L392 472Z" fill="#113638" stroke="#113638"></path><path d="M392 472L538 489L414 402Z" fill="#113638" stroke="#113638"></path><path d="M263 516L288 603L392 472Z" fill="#113638" stroke="#113638"></path><path d="M288 603L399 633L392 472Z" fill="#092b32" stroke="#092b32"></path><path d="M230 390L177 486L263 516Z" fill="#1c413d" stroke="#1c413d"></path><path d="M263 516L189 598L288 603Z" fill="#051b26" stroke="#051b26"></path><path d="M399 633L466 629L392 472Z" fill="#0c3035" stroke="#0c3035"></path><path d="M327 281L189 309L230 390Z" fill="#1c413d" stroke="#1c413d"></path><path d="M230 390L105 419L177 486Z" fill="#1c413d" stroke="#1c413d"></path><path d="M528 386L564 302L505 328Z" fill="#163b3b" stroke="#163b3b"></path><path d="M505 328L530 169L409 270Z" fill="#00101c" stroke="#00101c"></path><path d="M605 421L564 302L528 386Z" fill="#0c3035" stroke="#0c3035"></path><path d="M630 497L605 421L538 489Z" fill="#23463f" stroke="#23463f"></path><path d="M538 489L605 421L528 386Z" fill="#113638" stroke="#113638"></path><path d="M369 174L333 186L409 270Z" fill="#0c3035" stroke="#0c3035"></path><path d="M409 270L333 186L327 281Z" fill="#07262e" stroke="#07262e"></path><path d="M327 281L199 221L189 309Z" fill="#06202a" stroke="#06202a"></path><path d="M177 486L189 598L263 516Z" fill="#051b26" stroke="#051b26"></path><path d="M288 603L368 709L399 633Z" fill="#163b3b" stroke="#163b3b"></path><path d="M530 169L369 174L409 270Z" fill="#092b32" stroke="#092b32"></path><path d="M626 576L630 497L538 489Z" fill="#051b26" stroke="#051b26"></path><path d="M189 309L105 419L230 390Z" fill="#031621" stroke="#031621"></path><path d="M177 486L110 592L189 598Z" fill="#23463f" stroke="#23463f"></path><path d="M206 133L199 221L333 186Z" fill="#113638" stroke="#113638"></path><path d="M333 186L199 221L327 281Z" fill="#06202a" stroke="#06202a"></path><path d="M189 309L70 318L105 419Z" fill="#23463f" stroke="#23463f"></path><path d="M105 419L104 465L177 486Z" fill="#00101c" stroke="#00101c"></path><path d="M270 690L368 709L288 603Z" fill="#051b26" stroke="#051b26"></path><path d="M399 633L465 698L466 629Z" fill="#06202a" stroke="#06202a"></path><path d="M466 629L626 576L538 489Z" fill="#0c3035" stroke="#0c3035"></path><path d="M189 598L270 690L288 603Z" fill="#1c413d" stroke="#1c413d"></path><path d="M368 709L465 698L399 633Z" fill="#113638" stroke="#113638"></path><path d="M586 702L626 576L466 629Z" fill="#00101c" stroke="#00101c"></path><path d="M625 208L530 169L564 302Z" fill="#07262e" stroke="#07262e"></path><path d="M564 302L530 169L505 328Z" fill="#092b32" stroke="#092b32"></path><path d="M678 314L564 302L605 421Z" fill="#163b3b" stroke="#163b3b"></path><path d="M371 101L320 130L369 174Z" fill="#092b32" stroke="#092b32"></path><path d="M369 174L320 130L333 186Z" fill="#113638" stroke="#113638"></path><path d="M104 465L110 592L177 486Z" fill="#1c413d" stroke="#1c413d"></path><path d="M189 598L198 692L270 690Z" fill="#031621" stroke="#031621"></path><path d="M110 592L198 692L189 598Z" fill="#00101c" stroke="#00101c"></path><path d="M270 690L293 788L368 709Z" fill="#1c413d" stroke="#1c413d"></path><path d="M731 367L605 421L630 497Z" fill="#092b32" stroke="#092b32"></path><path d="M731 367L678 314L605 421Z" fill="#23463f" stroke="#23463f"></path><path d="M626 576L688 525L630 497Z" fill="#092b32" stroke="#092b32"></path><path d="M91 235L70 318L189 309Z" fill="#092b32" stroke="#092b32"></path><path d="M105 419L0 466L104 465Z" fill="#0c3035" stroke="#0c3035"></path><path d="M104 465L0 580L110 592Z" fill="#163b3b" stroke="#163b3b"></path><path d="M91 235L189 309L199 221Z" fill="#031621" stroke="#031621"></path><path d="M507 96L371 101L369 174Z" fill="#1c413d" stroke="#1c413d"></path><path d="M586 702L662 594L626 576Z" fill="#163b3b" stroke="#163b3b"></path><path d="M626 576L662 594L688 525Z" fill="#163b3b" stroke="#163b3b"></path><path d="M678 314L625 208L564 302Z" fill="#163b3b" stroke="#163b3b"></path><path d="M530 169L507 96L369 174Z" fill="#163b3b" stroke="#163b3b"></path><path d="M270 0L206 133L320 130Z" fill="#113638" stroke="#113638"></path><path d="M320 130L206 133L333 186Z" fill="#00101c" stroke="#00101c"></path><path d="M495 809L586 702L465 698Z" fill="#00101c" stroke="#00101c"></path><path d="M465 698L586 702L466 629Z" fill="#00101c" stroke="#00101c"></path><path d="M206 133L91 235L199 221Z" fill="#092b32" stroke="#092b32"></path><path d="M586 121L507 96L530 169Z" fill="#23463f" stroke="#23463f"></path><path d="M688 525L731 367L630 497Z" fill="#163b3b" stroke="#163b3b"></path><path d="M678 314L713 230L625 208Z" fill="#031621" stroke="#031621"></path><path d="M198 692L293 788L270 690Z" fill="#113638" stroke="#113638"></path><path d="M368 709L434 804L465 698Z" fill="#07262e" stroke="#07262e"></path><path d="M704 75L586 121L625 208Z" fill="#07262e" stroke="#07262e"></path><path d="M625 208L586 121L530 169Z" fill="#113638" stroke="#113638"></path><path d="M0 264L0 398L70 318Z" fill="#1c413d" stroke="#1c413d"></path><path d="M70 318L0 398L105 419Z" fill="#113638" stroke="#113638"></path><path d="M0 398L0 466L105 419Z" fill="#031621" stroke="#031621"></path><path d="M293 788L434 804L368 709Z" fill="#07262e" stroke="#07262e"></path><path d="M813 284L713 230L678 314Z" fill="#092b32" stroke="#092b32"></path><path d="M110 592L127 735L198 692Z" fill="#07262e" stroke="#07262e"></path><path d="M198 692L169 774L293 788Z" fill="#113638" stroke="#113638"></path><path d="M0 683L127 735L110 592Z" fill="#031621" stroke="#031621"></path><path d="M434 804L495 809L465 698Z" fill="#00101c" stroke="#00101c"></path><path d="M127 735L169 774L198 692Z" fill="#0c3035" stroke="#0c3035"></path><path d="M293 788L384 900L434 804Z" fill="#1c413d" stroke="#1c413d"></path><path d="M0 466L0 580L104 465Z" fill="#031621" stroke="#031621"></path><path d="M662 594L771 537L688 525Z" fill="#0c3035" stroke="#0c3035"></path><path d="M688 525L771 537L731 367Z" fill="#051b26" stroke="#051b26"></path><path d="M731 367L813 284L678 314Z" fill="#051b26" stroke="#051b26"></path><path d="M727 662L771 537L662 594Z" fill="#051b26" stroke="#051b26"></path><path d="M727 662L662 594L586 702Z" fill="#23463f" stroke="#23463f"></path><path d="M91 235L0 264L70 318Z" fill="#0c3035" stroke="#0c3035"></path><path d="M0 231L0 264L91 235Z" fill="#23463f" stroke="#23463f"></path><path d="M669 793L727 662L586 702Z" fill="#06202a" stroke="#06202a"></path><path d="M771 537L794 369L731 367Z" fill="#051b26" stroke="#051b26"></path><path d="M0 138L0 231L91 235Z" fill="#092b32" stroke="#092b32"></path><path d="M507 96L373 0L371 101Z" fill="#0c3035" stroke="#0c3035"></path><path d="M371 101L270 0L320 130Z" fill="#07262e" stroke="#07262e"></path><path d="M206 133L110 75L91 235Z" fill="#23463f" stroke="#23463f"></path><path d="M516 0L373 0L507 96Z" fill="#0c3035" stroke="#0c3035"></path><path d="M373 0L270 0L371 101Z" fill="#163b3b" stroke="#163b3b"></path><path d="M209 0L110 75L206 133Z" fill="#07262e" stroke="#07262e"></path><path d="M0 683L89 770L127 735Z" fill="#1c413d" stroke="#1c413d"></path><path d="M127 735L89 770L169 774Z" fill="#00101c" stroke="#00101c"></path><path d="M322 900L384 900L293 788Z" fill="#23463f" stroke="#23463f"></path><path d="M614 0L516 0L586 121Z" fill="#23463f" stroke="#23463f"></path><path d="M586 121L516 0L507 96Z" fill="#051b26" stroke="#051b26"></path><path d="M495 809L609 817L586 702Z" fill="#051b26" stroke="#051b26"></path><path d="M0 580L0 683L110 592Z" fill="#031621" stroke="#031621"></path><path d="M794 369L813 284L731 367Z" fill="#0c3035" stroke="#0c3035"></path><path d="M713 230L704 75L625 208Z" fill="#092b32" stroke="#092b32"></path><path d="M900 375L813 284L794 369Z" fill="#07262e" stroke="#07262e"></path><path d="M270 0L209 0L206 133Z" fill="#092b32" stroke="#092b32"></path><path d="M609 817L669 793L586 702Z" fill="#163b3b" stroke="#163b3b"></path><path d="M322 900L293 788L176 900Z" fill="#051b26" stroke="#051b26"></path><path d="M434 804L475 900L495 809Z" fill="#00101c" stroke="#00101c"></path><path d="M495 809L595 900L609 817Z" fill="#00101c" stroke="#00101c"></path><path d="M176 900L293 788L169 774Z" fill="#23463f" stroke="#23463f"></path><path d="M0 0L0 138L110 75Z" fill="#06202a" stroke="#06202a"></path><path d="M110 75L0 138L91 235Z" fill="#0c3035" stroke="#0c3035"></path><path d="M727 662L828 588L771 537Z" fill="#1c413d" stroke="#1c413d"></path><path d="M900 504L900 375L794 369Z" fill="#23463f" stroke="#23463f"></path><path d="M790 713L828 588L727 662Z" fill="#163b3b" stroke="#163b3b"></path><path d="M384 900L475 900L434 804Z" fill="#00101c" stroke="#00101c"></path><path d="M609 817L675 900L669 793Z" fill="#051b26" stroke="#051b26"></path><path d="M814 175L704 75L713 230Z" fill="#031621" stroke="#031621"></path><path d="M704 75L614 0L586 121Z" fill="#0c3035" stroke="#0c3035"></path><path d="M669 793L790 713L727 662Z" fill="#06202a" stroke="#06202a"></path><path d="M900 219L814 175L813 284Z" fill="#163b3b" stroke="#163b3b"></path><path d="M813 284L814 175L713 230Z" fill="#23463f" stroke="#23463f"></path><path d="M209 0L104 0L110 75Z" fill="#00101c" stroke="#00101c"></path><path d="M90 900L169 774L89 770Z" fill="#092b32" stroke="#092b32"></path><path d="M90 900L176 900L169 774Z" fill="#051b26" stroke="#051b26"></path><path d="M475 900L595 900L495 809Z" fill="#163b3b" stroke="#163b3b"></path><path d="M669 793L824 779L790 713Z" fill="#1c413d" stroke="#1c413d"></path><path d="M0 683L0 787L89 770Z" fill="#092b32" stroke="#092b32"></path><path d="M900 504L794 369L771 537Z" fill="#092b32" stroke="#092b32"></path><path d="M900 504L771 537L828 588Z" fill="#092b32" stroke="#092b32"></path><path d="M900 606L900 504L828 588Z" fill="#00101c" stroke="#00101c"></path><path d="M761 0L707 0L704 75Z" fill="#163b3b" stroke="#163b3b"></path><path d="M704 75L707 0L614 0Z" fill="#1c413d" stroke="#1c413d"></path><path d="M900 375L900 264L813 284Z" fill="#163b3b" stroke="#163b3b"></path><path d="M814 175L800 61L704 75Z" fill="#23463f" stroke="#23463f"></path><path d="M0 787L90 900L89 770Z" fill="#06202a" stroke="#06202a"></path><path d="M900 695L900 606L828 588Z" fill="#00101c" stroke="#00101c"></path><path d="M595 900L675 900L609 817Z" fill="#00101c" stroke="#00101c"></path><path d="M790 713L900 695L828 588Z" fill="#00101c" stroke="#00101c"></path><path d="M900 67L800 61L814 175Z" fill="#06202a" stroke="#06202a"></path><path d="M900 264L900 219L813 284Z" fill="#163b3b" stroke="#163b3b"></path><path d="M794 900L824 779L669 793Z" fill="#00101c" stroke="#00101c"></path><path d="M104 0L0 0L110 75Z" fill="#0c3035" stroke="#0c3035"></path><path d="M800 61L761 0L704 75Z" fill="#092b32" stroke="#092b32"></path><path d="M824 779L900 695L790 713Z" fill="#0c3035" stroke="#0c3035"></path><path d="M0 787L0 900L90 900Z" fill="#1c413d" stroke="#1c413d"></path><path d="M675 900L794 900L669 793Z" fill="#0c3035" stroke="#0c3035"></path><path d="M824 779L900 808L900 695Z" fill="#163b3b" stroke="#163b3b"></path><path d="M900 219L900 67L814 175Z" fill="#051b26" stroke="#051b26"></path><path d="M800 61L900 0L761 0Z" fill="#113638" stroke="#113638"></path><path d="M794 900L900 808L824 779Z" fill="#113638" stroke="#113638"></path><path d="M900 67L900 0L800 61Z" fill="#0c3035" stroke="#0c3035"></path><path d="M794 900L900 900L900 808Z" fill="#031621" stroke="#031621"></path></g></svg>